<?xml version="1.0" encoding="utf-8"?>
<!-- Generator: Adobe Illustrator 19.2.0, SVG Export Plug-In . SVG Version: 6.00 Build 0)  -->
<svg version="1.1" id="Layer_1" xmlns="http://www.w3.org/2000/svg" xmlns:xlink="http://www.w3.org/1999/xlink" x="0px" y="0px"
	 viewBox="0 0 512 512" style="enable-background:new 0 0 512 512;" xml:space="preserve">
<style type="text/css">
	.st0{fill:#FFFFFF;}
</style>
<path class="st0" d="M416,439.5l-19.6-298.8c-0.4-6.6-5.9-11.7-12.5-11.7h-54.7v-8c0-34.5-28-62.5-62.5-62.5h-21.5
	c-34.5,0-62.5,28-62.5,62.5v8h-54.7c-6.6,0-12,5.1-12.5,11.7L95.9,440.2c-0.2,3.5,1,6.8,3.3,9.4s5.7,4,9.1,4h295.2c0,0,0,0,0,0
	c6.9,0,12.5-5.6,12.5-12.5C416.1,440.5,416.1,440,416,439.5z M207.8,121c0-20.7,16.8-37.5,37.5-37.5h21.5
	c20.7,0,37.5,16.8,37.5,37.5v8h-96.5V121z M121.8,428.5l18-274.5h43v11.2c-8.9,4.6-15,13.8-15,24.5c0,15.2,12.3,27.5,27.5,27.5
	s27.5-12.3,27.5-27.5c0-10.7-6.1-19.9-15-24.5V154h96.5v11.2c-8.9,4.6-15,13.8-15,24.5c0,15.2,12.3,27.5,27.5,27.5
	s27.5-12.3,27.5-27.5c0-10.7-6.1-19.9-15-24.5V154h43l18,274.5H121.8z"/>
</svg>
