<?xml version="1.0" encoding="utf-8"?>
<!-- Generator: Adobe Illustrator 19.2.0, SVG Export Plug-In . SVG Version: 6.00 Build 0)  -->
<svg version="1.1" id="Layer_1" xmlns="http://www.w3.org/2000/svg" xmlns:xlink="http://www.w3.org/1999/xlink" x="0px" y="0px"
	 viewBox="0 0 512 512" style="enable-background:new 0 0 512 512;" xml:space="preserve">
<style type="text/css">
	.st0{fill:#FFFFFF;}
</style>
<g>
	<path class="st0" d="M378.7,186.2c0-67.6-55-122.7-122.7-122.7s-122.7,55-122.7,122.7c0,46.9,18.8,71.9,35.4,93.9
		c14,18.6,26.1,34.7,26.1,62.9l0,51.6c0,29.8,23.9,54,53.7,54h14.7c29.8,0,53.8-24.2,53.8-54l-0.1-51.6c0-28.2,12.1-44.3,26.1-62.9
		C359.8,258,378.7,233.1,378.7,186.2z M263.4,423.5h-14.7c-12.8,0-23.6-8.3-27.5-19.8h69.7C287,415.2,276.1,423.5,263.4,423.5z
		 M292.4,378.7h-72.8v-12h72.8V378.7z M292.1,341.8h-72.2c-0.3-35.9-16-56.7-31.2-76.8c-15.6-20.7-30.4-40.3-30.4-78.8
		c0-53.9,43.8-97.7,97.7-97.7s97.7,43.8,97.7,97.7c0,38.5-14.8,58.1-30.4,78.8C308.1,285.1,292.4,305.9,292.1,341.8z"/>
	<path class="st0" d="M238.1,283.9c6.5-2.4,9.8-9.5,7.5-16l-27.2-74.6l9.2-14.4l19.9,18.5c4.8,4.4,12.2,4.4,17,0l19.9-18.5l9.2,14.4
		l-27.2,74.6c-2.4,6.5,1,13.7,7.5,16c1.4,0.5,2.9,0.8,4.3,0.8c5.1,0,9.9-3.2,11.7-8.2l29.3-80.4c1.3-3.7,0.9-7.7-1.2-11l-20.6-32.2
		c-2-3.1-5.3-5.2-8.9-5.7c-3.7-0.5-7.4,0.7-10.1,3.2L256,171l-22.4-20.8c-2.7-2.5-6.4-3.7-10.1-3.2c-3.7,0.5-6.9,2.5-8.9,5.7
		L194,185c-2.1,3.3-2.5,7.4-1.2,11l29.3,80.4C224.4,282.9,231.6,286.2,238.1,283.9z"/>
</g>
</svg>
