<?xml version="1.0" encoding="utf-8"?>
<!-- Generator: Adobe Illustrator 19.2.0, SVG Export Plug-In . SVG Version: 6.00 Build 0)  -->
<svg version="1.1" id="Layer_1" xmlns="http://www.w3.org/2000/svg" xmlns:xlink="http://www.w3.org/1999/xlink" x="0px" y="0px"
	 viewBox="0 0 512 512" style="enable-background:new 0 0 512 512;" xml:space="preserve">
<style type="text/css">
	.st0{fill:#FFFFFF;}
</style>
<path class="st0" d="M389.8,151.5c3.6-3.6,4.6-9,2.7-13.6c-1.9-4.7-6.5-7.7-11.5-7.7h-50.3l19.6-22.7c4.5-5.2,3.9-13.1-1.3-17.6
	c-5.2-4.5-13.1-3.9-17.6,1.3l-33.7,39H131c-5.1,0-9.6,3-11.5,7.7c-1.9,4.7-0.9,10,2.7,13.6l121.3,121.3v127.3H216
	c-6.9,0-12.5,5.6-12.5,12.5s5.6,12.5,12.5,12.5h80c6.9,0,12.5-5.6,12.5-12.5s-5.6-12.5-12.5-12.5h-27.5V272.8L389.8,151.5z
	 M350.8,155.2L256,250l-94.8-94.8L350.8,155.2L350.8,155.2z"/>
</svg>
