<?xml version="1.0" encoding="utf-8"?>
<!-- Generator: Adobe Illustrator 19.2.0, SVG Export Plug-In . SVG Version: 6.00 Build 0)  -->
<svg version="1.1" id="Layer_1" xmlns="http://www.w3.org/2000/svg" xmlns:xlink="http://www.w3.org/1999/xlink" x="0px" y="0px"
	 viewBox="0 0 512 512" style="enable-background:new 0 0 512 512;" xml:space="preserve">
<style type="text/css">
	.st0{fill:#FFFFFF;}
</style>
<g>
	<path class="st0" d="M393.3,34H118.7c-6.9,0-12.5,5.6-12.5,12.5v149.3c0,1.6,0.3,3.2,0.9,4.7l33.1,82.4
		c-10.6,19.3-16.1,41-16.1,63.2c0,72.8,59.2,132,132,132s132-59.2,132-132c0-22.2-5.6-43.9-16.1-63.2l33.1-82.4
		c0.6-1.5,0.9-3.1,0.9-4.7V46.5C405.8,39.6,400.2,34,393.3,34z M380.8,59v111.9H131.2V59H380.8z M354.7,258.5
		c-9.5-10.7-20.7-19.8-33.2-27c-19.9-11.4-42.5-17.4-65.5-17.4s-45.7,6-65.5,17.4c-12.5,7.1-23.7,16.3-33.2,27l-25.2-62.6h247.7
		L354.7,258.5z M256,453c-59,0-107-48-107-107c0-19.7,5.4-39,15.6-55.7c19.6-32.1,53.8-51.2,91.3-51.2s71.7,19.2,91.3,51.2
		c10.2,16.7,15.6,36,15.6,55.7C363,405,315,453,256,453z"/>
	<path class="st0" d="M335.8,305.3l-47.4-6.9l-21.2-42.9c-2.1-4.3-6.5-7-11.2-7s-9.1,2.7-11.2,7l-21.2,42.9l-47.4,6.9
		c-4.7,0.7-8.6,4-10.1,8.5c-1.5,4.5-0.2,9.5,3.2,12.8l34.3,33.4l-8.1,47.2c-0.8,4.7,1.1,9.4,5,12.2c3.9,2.8,9,3.2,13.2,1l42.4-22.3
		l42.4,22.3c1.8,1,3.8,1.4,5.8,1.4c2.6,0,5.2-0.8,7.3-2.4c3.8-2.8,5.8-7.5,5-12.2l-8.1-47.2l34.3-33.4c3.4-3.3,4.6-8.3,3.2-12.8
		C344.4,309.3,340.5,306,335.8,305.3z M286.3,346.7c-2.9,2.9-4.3,7-3.6,11.1l4.9,28.7l-25.8-13.5c-1.8-1-3.8-1.4-5.8-1.4
		s-4,0.5-5.8,1.4l-25.8,13.5l4.9-28.7c0.7-4.1-0.6-8.2-3.6-11.1l-20.8-20.3l28.8-4.2c4.1-0.6,7.6-3.1,9.4-6.8l12.9-26.1l12.9,26.1
		c1.8,3.7,5.3,6.2,9.4,6.8l28.8,4.2L286.3,346.7z"/>
</g>
</svg>
