<?xml version="1.0" encoding="utf-8"?>
<!-- Generator: Adobe Illustrator 19.2.0, SVG Export Plug-In . SVG Version: 6.00 Build 0)  -->
<svg version="1.1" id="Layer_1" xmlns="http://www.w3.org/2000/svg" xmlns:xlink="http://www.w3.org/1999/xlink" x="0px" y="0px"
	 viewBox="0 0 512 512" style="enable-background:new 0 0 512 512;" xml:space="preserve">
<style type="text/css">
	.st0{fill:#FFFFFF;}
</style>
<path class="st0" d="M385.8,118.9C351,90.8,304.9,75.3,256,75.3s-95,15.5-129.8,43.6C90.6,147.7,71,186.2,71,227.3
	c0,41.1,19.6,79.6,55.2,108.4c34.8,28.1,80.9,43.6,129.8,43.6c5,0,10-0.2,15-0.5l31.5,52c2.2,3.6,6.1,5.9,10.4,6c0.1,0,0.2,0,0.3,0
	c4.2,0,8.1-2.1,10.4-5.5l66.7-99.3C423,303.6,441,266.5,441,227.3C441,186.1,421.4,147.7,385.8,118.9z M371.9,314.7L313.7,401
	l-25.4-41.8c-2.3-3.8-6.3-6-10.7-6c-0.4,0-0.8,0-1.3,0.1c-6.8,0.7-13.6,1-20.4,1c-88.2,0-160-57-160-127c0-70,71.8-127,160-127
	s160,57,160,127C416,259.9,400.3,290.9,371.9,314.7z"/>
</svg>
