<?xml version="1.0" encoding="utf-8"?>
<!-- Generator: Adobe Illustrator 19.2.0, SVG Export Plug-In . SVG Version: 6.00 Build 0)  -->
<svg version="1.1" id="Layer_1" xmlns="http://www.w3.org/2000/svg" xmlns:xlink="http://www.w3.org/1999/xlink" x="0px" y="0px"
	 viewBox="0 0 512 512" style="enable-background:new 0 0 512 512;" xml:space="preserve">
<style type="text/css">
	.st0{fill:#FFFFFF;}
</style>
<g>
	<path class="st0" d="M388,63.6H196.9c-3.3,0-6.5,1.3-8.8,3.7l-72.9,72.9c-2.3,2.3-3.7,5.5-3.7,8.8v286.9c0,6.9,5.6,12.5,12.5,12.5
		h264c6.9,0,12.5-5.6,12.5-12.5V76.1C400.5,69.2,394.9,63.6,388,63.6z M184.4,106.3v30.2h-30.2L184.4,106.3z M375.5,423.4h-239
		V161.5h60.4c6.9,0,12.5-5.6,12.5-12.5V88.6h166.1L375.5,423.4L375.5,423.4z"/>
	<path class="st0" d="M188.5,221.3c-6.9,0-12.5,5.6-12.5,12.5s5.6,12.5,12.5,12.5h37c6.9,0,12.5-5.6,12.5-12.5s-5.6-12.5-12.5-12.5
		H188.5z"/>
	<path class="st0" d="M256.5,246.3h67c6.9,0,12.5-5.6,12.5-12.5s-5.6-12.5-12.5-12.5h-67c-6.9,0-12.5,5.6-12.5,12.5
		S249.6,246.3,256.5,246.3z"/>
	<path class="st0" d="M188.5,296.3h77c6.9,0,12.5-5.6,12.5-12.5s-5.6-12.5-12.5-12.5h-77c-6.9,0-12.5,5.6-12.5,12.5
		S181.6,296.3,188.5,296.3z"/>
	<path class="st0" d="M323.5,271.3h-27c-6.9,0-12.5,5.6-12.5,12.5s5.6,12.5,12.5,12.5h27c6.9,0,12.5-5.6,12.5-12.5
		S330.4,271.3,323.5,271.3z"/>
	<path class="st0" d="M220.5,321.3h-32c-6.9,0-12.5,5.6-12.5,12.5s5.6,12.5,12.5,12.5h32c6.9,0,12.5-5.6,12.5-12.5
		S227.4,321.3,220.5,321.3z"/>
	<path class="st0" d="M323.5,321.3h-72c-6.9,0-12.5,5.6-12.5,12.5s5.6,12.5,12.5,12.5h72c6.9,0,12.5-5.6,12.5-12.5
		S330.4,321.3,323.5,321.3z"/>
</g>
</svg>
