<?xml version="1.0" encoding="utf-8"?>
<!-- Generator: Adobe Illustrator 19.2.0, SVG Export Plug-In . SVG Version: 6.00 Build 0)  -->
<svg version="1.1" id="Layer_1" xmlns="http://www.w3.org/2000/svg" xmlns:xlink="http://www.w3.org/1999/xlink" x="0px" y="0px"
	 viewBox="0 0 512 512" style="enable-background:new 0 0 512 512;" xml:space="preserve">
<style type="text/css">
	.st0{fill:#FFFFFF;}
</style>
<path class="st0" d="M333.4,263.7h-16.1c31.1-20.2,51.8-55.2,51.8-95c0-62.3-50.7-113-113-113s-113,50.7-113,113
	c0,39.8,20.7,74.8,51.8,95h-16.1c-41.4,0-75.1,33.7-75.1,75.1v105c0,6.9,5.6,12.5,12.5,12.5h280c6.9,0,12.5-5.6,12.5-12.5v-105
	C408.5,297.4,374.8,263.7,333.4,263.7z M168,168.7c0-48.5,39.5-88,88-88c48.5,0,88,39.5,88,88c0,48.5-39.5,88-88,88
	C207.5,256.8,168,217.3,168,168.7z M292.6,275.7L256,312.3l-36.6-36.6c11.5,3.9,23.8,6.1,36.6,6.1S281.1,279.6,292.6,275.7z
	 M383.5,431.3h-34v-60.1c0-6.9-5.6-12.5-12.5-12.5s-12.5,5.6-12.5,12.5v60.1h-137v-60.1c0-6.9-5.6-12.5-12.5-12.5
	s-12.5,5.6-12.5,12.5v60.1h-34v-92.5c0-27.6,22.5-50.1,50.1-50.1h18.4l50.1,50.1c2.4,2.4,5.6,3.7,8.8,3.7s6.4-1.2,8.8-3.7l50.1-50.1
	h18.4c27.6,0,50.1,22.5,50.1,50.1V431.3z"/>
</svg>
