<?xml version="1.0" encoding="utf-8"?>
<!-- Generator: Adobe Illustrator 19.2.0, SVG Export Plug-In . SVG Version: 6.00 Build 0)  -->
<svg version="1.1" id="Layer_1" xmlns="http://www.w3.org/2000/svg" xmlns:xlink="http://www.w3.org/1999/xlink" x="0px" y="0px"
	 viewBox="0 0 512 512" style="enable-background:new 0 0 512 512;" xml:space="preserve">
<style type="text/css">
	.st0{fill:#FFFFFF;}
</style>
<g>
	<path class="st0" d="M381.4,58.5H130.6c-39.8,0-72.2,32.4-72.2,72.1v250.7c0,39.8,32.4,72.1,72.2,72.1h250.7
		c39.8,0,72.1-32.4,72.1-72.1V130.6C453.5,90.9,421.1,58.5,381.4,58.5z M428.5,381.4c0,26-21.2,47.1-47.1,47.1H130.6
		c-26,0-47.2-21.2-47.2-47.1V130.6c0-26,21.2-47.2,47.2-47.2h250.7c26,0,47.1,21.2,47.1,47.2L428.5,381.4L428.5,381.4z"/>
	<path class="st0" d="M256,138.4c-33.8,0-61.3,27.5-61.3,61.3c0,6.9,5.6,12.5,12.5,12.5s12.5-5.6,12.5-12.5
		c0-20,16.3-36.3,36.3-36.3s36.3,16.3,36.3,36.3c0,11.5-8.3,19.2-22,30.5c-12.5,10.3-26.7,22-26.7,40.7v40.1
		c0,6.9,5.6,12.5,12.5,12.5s12.5-5.6,12.5-12.5v-40.1c0-6.8,8.2-13.6,17.6-21.4c13.9-11.4,31.1-25.6,31.1-49.8
		C317.3,165.9,289.8,138.4,256,138.4z"/>
	<path class="st0" d="M256,341.5c-8.8,0-16,7.2-16,16s7.2,16,16,16c8.8,0,16-7.2,16-16S264.8,341.5,256,341.5z"/>
</g>
</svg>
